<mxfile host="Electron" modified="2023-11-24T10:59:52.521Z" agent="Mozilla/5.0 (Macintosh; Intel Mac OS X 10_15_7) AppleWebKit/537.36 (KHTML, like Gecko) draw.io/22.1.2 Chrome/114.0.5735.289 Electron/25.9.4 Safari/537.36" etag="Ys5kGrTlP51BZsC8nPnX" version="22.1.2" type="device">
  <diagram name="Page-1" id="dJvPkJ3aBwSKKIN_yhvv">
    <mxGraphModel dx="1108" dy="791" grid="1" gridSize="10" guides="1" tooltips="1" connect="1" arrows="1" fold="1" page="1" pageScale="1" pageWidth="850" pageHeight="1100" math="0" shadow="0">
      <root>
        <mxCell id="0" />
        <mxCell id="1" parent="0" />
        <mxCell id="PnWVxTnbmwIbQfKQJycc-25" style="edgeStyle=orthogonalEdgeStyle;rounded=0;orthogonalLoop=1;jettySize=auto;html=1;entryX=0;entryY=0.5;entryDx=0;entryDy=0;" edge="1" parent="1" source="PnWVxTnbmwIbQfKQJycc-1" target="PnWVxTnbmwIbQfKQJycc-24">
          <mxGeometry relative="1" as="geometry" />
        </mxCell>
        <mxCell id="PnWVxTnbmwIbQfKQJycc-1" value="&lt;b&gt;gg-docker-deploy.py&lt;br&gt;&amp;lt;thing-name&amp;gt;&lt;/b&gt;" style="shape=process;whiteSpace=wrap;html=1;backgroundOutline=1;" vertex="1" parent="1">
          <mxGeometry x="30" y="100" width="160" height="50" as="geometry" />
        </mxCell>
        <mxCell id="PnWVxTnbmwIbQfKQJycc-6" style="edgeStyle=orthogonalEdgeStyle;rounded=0;orthogonalLoop=1;jettySize=auto;html=1;exitX=1;exitY=0.5;exitDx=0;exitDy=0;" edge="1" parent="1" source="PnWVxTnbmwIbQfKQJycc-1">
          <mxGeometry relative="1" as="geometry">
            <mxPoint x="265" y="125" as="targetPoint" />
          </mxGeometry>
        </mxCell>
        <mxCell id="PnWVxTnbmwIbQfKQJycc-9" value="" style="ellipse;shape=cloud;whiteSpace=wrap;html=1;align=left;strokeWidth=2;" vertex="1" parent="1">
          <mxGeometry x="210" y="20" width="470" height="190" as="geometry" />
        </mxCell>
        <mxCell id="PnWVxTnbmwIbQfKQJycc-10" value="IoT Thing: &amp;lt;thing-name&amp;gt;&lt;br&gt;IoT policy: &amp;lt;thing-name&amp;gt;-iot-policy&lt;br&gt;IoT certificate and private key&lt;br&gt;Greengrass Role Alias: &amp;lt;thing-name&amp;gt;-ggRoleAlias&lt;br&gt;IoT Thing Group: &amp;lt;thing-name&amp;gt;-group" style="text;html=1;strokeColor=none;fillColor=none;align=left;verticalAlign=middle;whiteSpace=wrap;rounded=0;" vertex="1" parent="1">
          <mxGeometry x="310" y="110" width="330" height="30" as="geometry" />
        </mxCell>
        <mxCell id="PnWVxTnbmwIbQfKQJycc-13" value="AWS Greengrass&lt;br&gt;AWS Cloud resources" style="text;html=1;strokeColor=none;fillColor=none;align=center;verticalAlign=middle;whiteSpace=wrap;rounded=0;fontStyle=1" vertex="1" parent="1">
          <mxGeometry x="350" y="50" width="130" height="30" as="geometry" />
        </mxCell>
        <mxCell id="PnWVxTnbmwIbQfKQJycc-19" style="edgeStyle=orthogonalEdgeStyle;rounded=0;orthogonalLoop=1;jettySize=auto;html=1;entryX=0;entryY=0.5;entryDx=0;entryDy=0;" edge="1" parent="1" source="PnWVxTnbmwIbQfKQJycc-15" target="PnWVxTnbmwIbQfKQJycc-18">
          <mxGeometry relative="1" as="geometry" />
        </mxCell>
        <mxCell id="PnWVxTnbmwIbQfKQJycc-21" style="edgeStyle=orthogonalEdgeStyle;rounded=0;orthogonalLoop=1;jettySize=auto;html=1;entryX=0;entryY=0.5;entryDx=0;entryDy=0;" edge="1" parent="1" source="PnWVxTnbmwIbQfKQJycc-15" target="PnWVxTnbmwIbQfKQJycc-20">
          <mxGeometry relative="1" as="geometry" />
        </mxCell>
        <mxCell id="PnWVxTnbmwIbQfKQJycc-32" style="edgeStyle=orthogonalEdgeStyle;rounded=0;orthogonalLoop=1;jettySize=auto;html=1;startArrow=classic;startFill=1;endArrow=none;endFill=0;" edge="1" parent="1" source="PnWVxTnbmwIbQfKQJycc-15">
          <mxGeometry relative="1" as="geometry">
            <mxPoint x="230" y="265" as="targetPoint" />
          </mxGeometry>
        </mxCell>
        <mxCell id="PnWVxTnbmwIbQfKQJycc-43" value="" style="edgeStyle=orthogonalEdgeStyle;rounded=0;orthogonalLoop=1;jettySize=auto;html=1;" edge="1" parent="1" source="PnWVxTnbmwIbQfKQJycc-15" target="PnWVxTnbmwIbQfKQJycc-18">
          <mxGeometry relative="1" as="geometry" />
        </mxCell>
        <mxCell id="PnWVxTnbmwIbQfKQJycc-85" style="edgeStyle=orthogonalEdgeStyle;rounded=0;orthogonalLoop=1;jettySize=auto;html=1;dashed=1;strokeWidth=2;strokeColor=#0356FC;" edge="1" parent="1" source="PnWVxTnbmwIbQfKQJycc-15" target="PnWVxTnbmwIbQfKQJycc-64">
          <mxGeometry relative="1" as="geometry">
            <Array as="points">
              <mxPoint x="292" y="400" />
              <mxPoint x="110" y="400" />
            </Array>
          </mxGeometry>
        </mxCell>
        <mxCell id="PnWVxTnbmwIbQfKQJycc-15" value="docker/volume" style="image;aspect=fixed;perimeter=ellipsePerimeter;html=1;align=center;shadow=0;dashed=0;spacingTop=-5;image=img/lib/active_directory/folder.svg;" vertex="1" parent="1">
          <mxGeometry x="273.5" y="240" width="36.5" height="50" as="geometry" />
        </mxCell>
        <mxCell id="PnWVxTnbmwIbQfKQJycc-37" style="edgeStyle=orthogonalEdgeStyle;rounded=0;orthogonalLoop=1;jettySize=auto;html=1;" edge="1" parent="1" source="PnWVxTnbmwIbQfKQJycc-18" target="PnWVxTnbmwIbQfKQJycc-36">
          <mxGeometry relative="1" as="geometry" />
        </mxCell>
        <mxCell id="PnWVxTnbmwIbQfKQJycc-40" style="edgeStyle=orthogonalEdgeStyle;rounded=0;orthogonalLoop=1;jettySize=auto;html=1;exitX=1;exitY=0.5;exitDx=0;exitDy=0;entryX=0;entryY=0.5;entryDx=0;entryDy=0;" edge="1" parent="1" source="PnWVxTnbmwIbQfKQJycc-18" target="PnWVxTnbmwIbQfKQJycc-39">
          <mxGeometry relative="1" as="geometry" />
        </mxCell>
        <mxCell id="PnWVxTnbmwIbQfKQJycc-42" style="edgeStyle=orthogonalEdgeStyle;rounded=0;orthogonalLoop=1;jettySize=auto;html=1;exitX=1;exitY=0.5;exitDx=0;exitDy=0;entryX=0;entryY=0.5;entryDx=0;entryDy=0;" edge="1" parent="1" source="PnWVxTnbmwIbQfKQJycc-18" target="PnWVxTnbmwIbQfKQJycc-41">
          <mxGeometry relative="1" as="geometry" />
        </mxCell>
        <mxCell id="PnWVxTnbmwIbQfKQJycc-18" value="certs" style="image;aspect=fixed;perimeter=ellipsePerimeter;html=1;align=center;shadow=0;dashed=0;spacingTop=-7;image=img/lib/active_directory/folder.svg;" vertex="1" parent="1">
          <mxGeometry x="360" y="240" width="36.5" height="50" as="geometry" />
        </mxCell>
        <mxCell id="PnWVxTnbmwIbQfKQJycc-38" style="edgeStyle=orthogonalEdgeStyle;rounded=0;orthogonalLoop=1;jettySize=auto;html=1;" edge="1" parent="1" source="PnWVxTnbmwIbQfKQJycc-20" target="PnWVxTnbmwIbQfKQJycc-22">
          <mxGeometry relative="1" as="geometry" />
        </mxCell>
        <mxCell id="PnWVxTnbmwIbQfKQJycc-20" value="config" style="image;aspect=fixed;perimeter=ellipsePerimeter;html=1;align=center;shadow=0;dashed=0;spacingTop=-5;image=img/lib/active_directory/folder.svg;" vertex="1" parent="1">
          <mxGeometry x="360" y="320" width="36.5" height="50" as="geometry" />
        </mxCell>
        <mxCell id="PnWVxTnbmwIbQfKQJycc-22" value="config.yaml" style="text;strokeColor=none;fillColor=none;align=left;verticalAlign=middle;spacingLeft=4;spacingRight=4;overflow=hidden;points=[[0,0.5],[1,0.5]];portConstraint=eastwest;rotatable=0;whiteSpace=wrap;html=1;" vertex="1" parent="1">
          <mxGeometry x="450" y="330" width="80" height="30" as="geometry" />
        </mxCell>
        <mxCell id="PnWVxTnbmwIbQfKQJycc-46" style="edgeStyle=orthogonalEdgeStyle;rounded=0;orthogonalLoop=1;jettySize=auto;html=1;exitX=1;exitY=0.5;exitDx=0;exitDy=0;entryX=0;entryY=0.5;entryDx=0;entryDy=0;" edge="1" parent="1" source="PnWVxTnbmwIbQfKQJycc-24" target="PnWVxTnbmwIbQfKQJycc-45">
          <mxGeometry relative="1" as="geometry" />
        </mxCell>
        <mxCell id="PnWVxTnbmwIbQfKQJycc-24" value="gg-config" style="image;aspect=fixed;perimeter=ellipsePerimeter;html=1;align=center;shadow=0;dashed=0;spacingTop=-5;image=img/lib/active_directory/folder.svg;" vertex="1" parent="1">
          <mxGeometry x="273.5" y="480" width="36.5" height="50" as="geometry" />
        </mxCell>
        <mxCell id="PnWVxTnbmwIbQfKQJycc-33" value="docker-compose.yaml" style="text;strokeColor=none;fillColor=none;align=left;verticalAlign=middle;spacingLeft=4;spacingRight=4;overflow=hidden;points=[[0,0.5],[1,0.5]];portConstraint=eastwest;rotatable=0;whiteSpace=wrap;html=1;" vertex="1" parent="1">
          <mxGeometry x="360" y="400" width="150" height="30" as="geometry" />
        </mxCell>
        <mxCell id="PnWVxTnbmwIbQfKQJycc-35" value="" style="endArrow=classic;html=1;rounded=0;entryX=0;entryY=0.5;entryDx=0;entryDy=0;" edge="1" parent="1" target="PnWVxTnbmwIbQfKQJycc-33">
          <mxGeometry width="50" height="50" relative="1" as="geometry">
            <mxPoint x="335" y="344" as="sourcePoint" />
            <mxPoint x="450" y="310" as="targetPoint" />
            <Array as="points">
              <mxPoint x="335" y="415" />
            </Array>
          </mxGeometry>
        </mxCell>
        <mxCell id="PnWVxTnbmwIbQfKQJycc-36" value="AmazonRootCA1.pem" style="text;strokeColor=none;fillColor=none;align=left;verticalAlign=middle;spacingLeft=4;spacingRight=4;overflow=hidden;points=[[0,0.5],[1,0.5]];portConstraint=eastwest;rotatable=0;whiteSpace=wrap;html=1;" vertex="1" parent="1">
          <mxGeometry x="450" y="250" width="145" height="30" as="geometry" />
        </mxCell>
        <mxCell id="PnWVxTnbmwIbQfKQJycc-39" value="device.pem.crt" style="text;strokeColor=none;fillColor=none;align=left;verticalAlign=middle;spacingLeft=4;spacingRight=4;overflow=hidden;points=[[0,0.5],[1,0.5]];portConstraint=eastwest;rotatable=0;whiteSpace=wrap;html=1;" vertex="1" parent="1">
          <mxGeometry x="450" y="270" width="145" height="30" as="geometry" />
        </mxCell>
        <mxCell id="PnWVxTnbmwIbQfKQJycc-41" value="private.pem.key" style="text;strokeColor=none;fillColor=none;align=left;verticalAlign=middle;spacingLeft=4;spacingRight=4;overflow=hidden;points=[[0,0.5],[1,0.5]];portConstraint=eastwest;rotatable=0;whiteSpace=wrap;html=1;" vertex="1" parent="1">
          <mxGeometry x="450" y="290" width="145" height="30" as="geometry" />
        </mxCell>
        <mxCell id="PnWVxTnbmwIbQfKQJycc-47" style="edgeStyle=orthogonalEdgeStyle;rounded=0;orthogonalLoop=1;jettySize=auto;html=1;exitX=1;exitY=0.5;exitDx=0;exitDy=0;" edge="1" parent="1" source="PnWVxTnbmwIbQfKQJycc-45">
          <mxGeometry relative="1" as="geometry">
            <mxPoint x="460" y="505" as="targetPoint" />
          </mxGeometry>
        </mxCell>
        <mxCell id="PnWVxTnbmwIbQfKQJycc-45" value="gg-config.yaml" style="text;strokeColor=none;fillColor=none;align=left;verticalAlign=middle;spacingLeft=4;spacingRight=4;overflow=hidden;points=[[0,0.5],[1,0.5]];portConstraint=eastwest;rotatable=0;whiteSpace=wrap;html=1;" vertex="1" parent="1">
          <mxGeometry x="330" y="490" width="90" height="30" as="geometry" />
        </mxCell>
        <mxCell id="PnWVxTnbmwIbQfKQJycc-48" value="&lt;b&gt;compdeploy.py&lt;/b&gt;" style="shape=process;whiteSpace=wrap;html=1;backgroundOutline=1;" vertex="1" parent="1">
          <mxGeometry x="30" y="980" width="160" height="50" as="geometry" />
        </mxCell>
        <mxCell id="PnWVxTnbmwIbQfKQJycc-81" style="edgeStyle=orthogonalEdgeStyle;rounded=0;orthogonalLoop=1;jettySize=auto;html=1;entryX=0.75;entryY=0;entryDx=0;entryDy=0;strokeColor=#0356fc;strokeWidth=2;shadow=0;dashed=1;" edge="1" parent="1" source="PnWVxTnbmwIbQfKQJycc-51" target="PnWVxTnbmwIbQfKQJycc-48">
          <mxGeometry relative="1" as="geometry">
            <Array as="points">
              <mxPoint x="640" y="870" />
              <mxPoint x="150" y="870" />
            </Array>
          </mxGeometry>
        </mxCell>
        <mxCell id="PnWVxTnbmwIbQfKQJycc-51" value="thingArn: arn:aws:iot:region:xxxxxxxxxxx:thing/&amp;lt;thing-name&amp;gt;&lt;br style=&quot;border-color: var(--border-color);&quot;&gt;thingGroupArn: arn:aws:iot:region:xxxxxxxxxxxx:thinggroup/&amp;lt;thing-name&amp;gt;-group&lt;br style=&quot;border-color: var(--border-color);&quot;&gt;thingName: &amp;lt;thing-name&amp;gt;&lt;br style=&quot;border-color: var(--border-color);&quot;&gt;components:&lt;br style=&quot;border-color: var(--border-color);&quot;&gt;- HelloWorld&lt;br style=&quot;border-color: var(--border-color);&quot;&gt;- EnvironmentalSensor" style="rounded=0;whiteSpace=wrap;html=1;align=left;" vertex="1" parent="1">
          <mxGeometry x="462.5" y="460" width="377.5" height="110" as="geometry" />
        </mxCell>
        <mxCell id="PnWVxTnbmwIbQfKQJycc-55" value="" style="ellipse;shape=cloud;whiteSpace=wrap;html=1;strokeWidth=2;" vertex="1" parent="1">
          <mxGeometry x="250" y="920" width="410" height="200" as="geometry" />
        </mxCell>
        <mxCell id="PnWVxTnbmwIbQfKQJycc-56" value="deployment: &amp;lt;thing-name&amp;gt;-deployment" style="text;html=1;strokeColor=default;fillColor=none;align=center;verticalAlign=middle;whiteSpace=wrap;rounded=0;strokeWidth=0;" vertex="1" parent="1">
          <mxGeometry x="290" y="990" width="270" height="30" as="geometry" />
        </mxCell>
        <mxCell id="PnWVxTnbmwIbQfKQJycc-57" value="HelloWorld component" style="text;strokeColor=none;fillColor=none;align=left;verticalAlign=middle;spacingLeft=4;spacingRight=4;overflow=hidden;points=[[0,0.5],[1,0.5]];portConstraint=eastwest;rotatable=0;whiteSpace=wrap;html=1;" vertex="1" parent="1">
          <mxGeometry x="400" y="1020" width="150" height="30" as="geometry" />
        </mxCell>
        <mxCell id="PnWVxTnbmwIbQfKQJycc-58" value="EnvironmentalSensor component" style="text;strokeColor=none;fillColor=none;align=left;verticalAlign=middle;spacingLeft=4;spacingRight=4;overflow=hidden;points=[[0,0.5],[1,0.5]];portConstraint=eastwest;rotatable=0;whiteSpace=wrap;html=1;" vertex="1" parent="1">
          <mxGeometry x="400" y="1050" width="210" height="30" as="geometry" />
        </mxCell>
        <mxCell id="PnWVxTnbmwIbQfKQJycc-59" value="AWS Greengrass&lt;br&gt;AWS Cloud resources" style="text;html=1;strokeColor=none;fillColor=none;align=center;verticalAlign=middle;whiteSpace=wrap;rounded=0;fontStyle=1" vertex="1" parent="1">
          <mxGeometry x="360" y="960" width="130" height="30" as="geometry" />
        </mxCell>
        <mxCell id="PnWVxTnbmwIbQfKQJycc-60" value="" style="endArrow=classic;html=1;rounded=0;entryX=0;entryY=0.5;entryDx=0;entryDy=0;exitX=0.25;exitY=1;exitDx=0;exitDy=0;" edge="1" parent="1" source="PnWVxTnbmwIbQfKQJycc-56" target="PnWVxTnbmwIbQfKQJycc-58">
          <mxGeometry width="50" height="50" relative="1" as="geometry">
            <mxPoint x="370" y="1009" as="sourcePoint" />
            <mxPoint x="395" y="1080" as="targetPoint" />
            <Array as="points">
              <mxPoint x="358" y="1065" />
            </Array>
          </mxGeometry>
        </mxCell>
        <mxCell id="PnWVxTnbmwIbQfKQJycc-62" value="" style="endArrow=classic;html=1;rounded=0;entryX=0;entryY=0.5;entryDx=0;entryDy=0;" edge="1" parent="1" target="PnWVxTnbmwIbQfKQJycc-57">
          <mxGeometry width="50" height="50" relative="1" as="geometry">
            <mxPoint x="360" y="1035" as="sourcePoint" />
            <mxPoint x="410" y="990" as="targetPoint" />
          </mxGeometry>
        </mxCell>
        <mxCell id="PnWVxTnbmwIbQfKQJycc-63" style="edgeStyle=orthogonalEdgeStyle;rounded=0;orthogonalLoop=1;jettySize=auto;html=1;entryX=0.054;entryY=0.423;entryDx=0;entryDy=0;entryPerimeter=0;" edge="1" parent="1" source="PnWVxTnbmwIbQfKQJycc-48" target="PnWVxTnbmwIbQfKQJycc-55">
          <mxGeometry relative="1" as="geometry" />
        </mxCell>
        <mxCell id="PnWVxTnbmwIbQfKQJycc-87" style="edgeStyle=orthogonalEdgeStyle;rounded=0;orthogonalLoop=1;jettySize=auto;html=1;exitX=1;exitY=0.5;exitDx=0;exitDy=0;" edge="1" parent="1" source="PnWVxTnbmwIbQfKQJycc-64" target="PnWVxTnbmwIbQfKQJycc-86">
          <mxGeometry relative="1" as="geometry" />
        </mxCell>
        <mxCell id="PnWVxTnbmwIbQfKQJycc-64" value="&lt;b&gt;win-gg-installer.py&lt;/b&gt;" style="shape=process;whiteSpace=wrap;html=1;backgroundOutline=1;" vertex="1" parent="1">
          <mxGeometry x="30" y="1180" width="160" height="50" as="geometry" />
        </mxCell>
        <mxCell id="PnWVxTnbmwIbQfKQJycc-67" style="edgeStyle=orthogonalEdgeStyle;rounded=0;orthogonalLoop=1;jettySize=auto;html=1;entryX=0;entryY=0.5;entryDx=0;entryDy=0;" edge="1" parent="1" source="PnWVxTnbmwIbQfKQJycc-65" target="PnWVxTnbmwIbQfKQJycc-66">
          <mxGeometry relative="1" as="geometry" />
        </mxCell>
        <mxCell id="PnWVxTnbmwIbQfKQJycc-65" value="ggComponents" style="image;aspect=fixed;perimeter=ellipsePerimeter;html=1;align=center;shadow=0;dashed=0;spacingTop=-5;image=img/lib/active_directory/folder.svg;" vertex="1" parent="1">
          <mxGeometry x="80" y="600" width="36.5" height="50" as="geometry" />
        </mxCell>
        <mxCell id="PnWVxTnbmwIbQfKQJycc-69" style="edgeStyle=orthogonalEdgeStyle;rounded=0;orthogonalLoop=1;jettySize=auto;html=1;exitX=1;exitY=0.5;exitDx=0;exitDy=0;entryX=0;entryY=0.5;entryDx=0;entryDy=0;" edge="1" parent="1" source="PnWVxTnbmwIbQfKQJycc-66" target="PnWVxTnbmwIbQfKQJycc-68">
          <mxGeometry relative="1" as="geometry" />
        </mxCell>
        <mxCell id="PnWVxTnbmwIbQfKQJycc-72" style="edgeStyle=orthogonalEdgeStyle;rounded=0;orthogonalLoop=1;jettySize=auto;html=1;exitX=1;exitY=0.5;exitDx=0;exitDy=0;entryX=0;entryY=0.5;entryDx=0;entryDy=0;" edge="1" parent="1" source="PnWVxTnbmwIbQfKQJycc-66" target="PnWVxTnbmwIbQfKQJycc-70">
          <mxGeometry relative="1" as="geometry" />
        </mxCell>
        <mxCell id="PnWVxTnbmwIbQfKQJycc-66" value="HelloWorld" style="image;aspect=fixed;perimeter=ellipsePerimeter;html=1;align=center;shadow=0;dashed=0;spacingTop=-5;image=img/lib/active_directory/folder.svg;" vertex="1" parent="1">
          <mxGeometry x="180" y="600" width="36.5" height="50" as="geometry" />
        </mxCell>
        <mxCell id="PnWVxTnbmwIbQfKQJycc-68" value="artifacts" style="image;aspect=fixed;perimeter=ellipsePerimeter;html=1;align=center;shadow=0;dashed=0;spacingTop=-5;image=img/lib/active_directory/folder.svg;" vertex="1" parent="1">
          <mxGeometry x="273.5" y="600" width="36.5" height="50" as="geometry" />
        </mxCell>
        <mxCell id="PnWVxTnbmwIbQfKQJycc-70" value="recipe.yaml" style="text;strokeColor=none;fillColor=none;align=left;verticalAlign=middle;spacingLeft=0;spacingRight=4;overflow=hidden;points=[[0,0.5],[1,0.5]];portConstraint=eastwest;rotatable=0;whiteSpace=wrap;html=1;" vertex="1" parent="1">
          <mxGeometry x="270" y="670" width="90" height="30" as="geometry" />
        </mxCell>
        <mxCell id="PnWVxTnbmwIbQfKQJycc-77" style="edgeStyle=orthogonalEdgeStyle;rounded=0;orthogonalLoop=1;jettySize=auto;html=1;exitX=1;exitY=0.5;exitDx=0;exitDy=0;" edge="1" parent="1" source="PnWVxTnbmwIbQfKQJycc-74" target="PnWVxTnbmwIbQfKQJycc-75">
          <mxGeometry relative="1" as="geometry" />
        </mxCell>
        <mxCell id="PnWVxTnbmwIbQfKQJycc-78" style="edgeStyle=orthogonalEdgeStyle;rounded=0;orthogonalLoop=1;jettySize=auto;html=1;entryX=0;entryY=0.5;entryDx=0;entryDy=0;" edge="1" parent="1" target="PnWVxTnbmwIbQfKQJycc-76">
          <mxGeometry relative="1" as="geometry">
            <mxPoint x="240" y="740" as="sourcePoint" />
          </mxGeometry>
        </mxCell>
        <mxCell id="PnWVxTnbmwIbQfKQJycc-79" style="edgeStyle=orthogonalEdgeStyle;rounded=0;orthogonalLoop=1;jettySize=auto;html=1;startArrow=classic;startFill=1;endArrow=none;endFill=0;" edge="1" parent="1" source="PnWVxTnbmwIbQfKQJycc-74">
          <mxGeometry relative="1" as="geometry">
            <mxPoint x="150" y="630" as="targetPoint" />
          </mxGeometry>
        </mxCell>
        <mxCell id="PnWVxTnbmwIbQfKQJycc-74" value="Environmental&lt;br&gt;Sensor" style="image;aspect=fixed;perimeter=ellipsePerimeter;html=1;align=center;shadow=0;dashed=0;spacingTop=-5;image=img/lib/active_directory/folder.svg;" vertex="1" parent="1">
          <mxGeometry x="180" y="710" width="36.5" height="50" as="geometry" />
        </mxCell>
        <mxCell id="PnWVxTnbmwIbQfKQJycc-75" value="artifacts" style="image;aspect=fixed;perimeter=ellipsePerimeter;html=1;align=center;shadow=0;dashed=0;spacingTop=-5;image=img/lib/active_directory/folder.svg;" vertex="1" parent="1">
          <mxGeometry x="270" y="710" width="36.5" height="50" as="geometry" />
        </mxCell>
        <mxCell id="PnWVxTnbmwIbQfKQJycc-76" value="recipe.yaml" style="text;strokeColor=none;fillColor=none;align=left;verticalAlign=middle;spacingLeft=0;spacingRight=4;overflow=hidden;points=[[0,0.5],[1,0.5]];portConstraint=eastwest;rotatable=0;whiteSpace=wrap;html=1;" vertex="1" parent="1">
          <mxGeometry x="270" y="780" width="90" height="30" as="geometry" />
        </mxCell>
        <mxCell id="PnWVxTnbmwIbQfKQJycc-80" style="edgeStyle=orthogonalEdgeStyle;rounded=0;orthogonalLoop=1;jettySize=auto;html=1;entryX=0.425;entryY=-0.06;entryDx=0;entryDy=0;entryPerimeter=0;strokeColor=#0356FC;dashed=1;strokeWidth=2;" edge="1" parent="1" source="PnWVxTnbmwIbQfKQJycc-65" target="PnWVxTnbmwIbQfKQJycc-48">
          <mxGeometry relative="1" as="geometry" />
        </mxCell>
        <mxCell id="PnWVxTnbmwIbQfKQJycc-86" value="greengrass/v2" style="image;aspect=fixed;perimeter=ellipsePerimeter;html=1;align=center;shadow=0;dashed=0;spacingTop=3;image=img/lib/active_directory/folder.svg;" vertex="1" parent="1">
          <mxGeometry x="290" y="1180" width="36.5" height="50" as="geometry" />
        </mxCell>
      </root>
    </mxGraphModel>
  </diagram>
</mxfile>
